# xmcd CD database file
#
# Track frame offsets:
#	150
#	14546
#	53764
#	75438
#	105548
#	119092
#	151294
#	179639
#	203299
#	223900
#	252629
#	278005
#	295872
#	322761
#
# Disc length: 4615 seconds
#
# Revision: 0
# Processed by: cddbd v1.5.2PL0 Copyright (c) Steve Scherf et al.
# Submitted via: CDex 1.51
#
DISCID=c512050e
DTITLE=Essentials - essentials - CD 3 Jazz
DYEAR=2003
DGENRE=Jazz
TTITLE0=It don´t Mean A Thing
TTITLE1=Me Funny Valentine
TTITLE2=Goodbye Pork Pie Hat
TTITLE3=Georgia On My Mind
TTITLE4=Let Me Off Uptown
TTITLE5=Take Five
TTITLE6=Wave
TTITLE7=Vera Cruz
TTITLE8=Straight, No Chaser
TTITLE9=A Thousand Autumns
TTITLE10=Straigth Into The Sunrise
TTITLE11=To see You
TTITLE12=Birdland
TTITLE13=Mediterranean Sundace
EXTD=YEAR: 2003
EXTT0=
EXTT1=
EXTT2=
EXTT3=
EXTT4=
EXTT5=
EXTT6=
EXTT7=
EXTT8=
EXTT9=
EXTT10=
EXTT11=
EXTT12=
EXTT13=
PLAYORDER=
